<mxfile host="app.diagrams.net" modified="2023-10-23T07:20:31.453Z" agent="Mozilla/5.0 (Macintosh; Intel Mac OS X 10_15_7) AppleWebKit/537.36 (KHTML, like Gecko) Chrome/117.0.0.0 Safari/537.36" version="21.7.5" etag="VTkYgR-5wptlL-FXHV86" type="github">
  <diagram name="第 1 页" id="3TagGH0W_7G5iVJb2YHu">
    <mxGraphModel>
      <root>
        <mxCell id="0" />
        <mxCell id="1" parent="0" />
      </root>
    </mxGraphModel>
  </diagram>
</mxfile>
